<svg xmlns="http://www.w3.org/2000/svg" xmlns:xlink="http://www.w3.org/1999/xlink" width="500" zoomAndPan="magnify" viewBox="0 0 375 374.999991" height="500" preserveAspectRatio="xMidYMid meet" version="1.0"><defs><g/></defs><g fill="#171616" fill-opacity="1"><g transform="translate(78.146225, 271.296813)"><g><path d="M 74.5625 -162.09375 C 87.84375 -162.09375 99.691406 -160.429688 110.109375 -157.109375 C 120.523438 -153.796875 128.703125 -148.585938 134.640625 -141.484375 C 140.585938 -134.378906 143.5625 -125.117188 143.5625 -113.703125 C 143.5625 -108.453125 142.554688 -103.316406 140.546875 -98.296875 C 138.546875 -93.273438 135.382812 -88.992188 131.0625 -85.453125 C 138.625 -82.054688 144.179688 -77.078125 147.734375 -70.515625 C 151.285156 -63.953125 153.0625 -56.960938 153.0625 -49.546875 C 153.0625 -37.660156 150.050781 -28.050781 144.03125 -20.71875 C 138.007812 -13.382812 129.554688 -8.097656 118.671875 -4.859375 C 107.785156 -1.617188 95.015625 0 80.359375 0 L 2.3125 0 L 2.3125 -162.09375 Z M 79.421875 -103.734375 C 83.128906 -103.734375 85.867188 -104.617188 87.640625 -106.390625 C 89.421875 -108.171875 90.3125 -110.179688 90.3125 -112.421875 C 90.3125 -114.660156 89.421875 -116.664062 87.640625 -118.4375 C 85.867188 -120.21875 83.128906 -121.109375 79.421875 -121.109375 L 62.515625 -121.109375 L 62.515625 -44.234375 L 81.515625 -44.234375 C 85.367188 -44.234375 88.222656 -45.15625 90.078125 -47 C 91.929688 -48.851562 92.859375 -50.976562 92.859375 -53.375 C 92.859375 -55.769531 91.890625 -57.890625 89.953125 -59.734375 C 88.023438 -61.585938 85.132812 -62.515625 81.28125 -62.515625 L 66.453125 -62.515625 L 66.453125 -103.734375 Z M 79.421875 -103.734375 "/></g></g></g><path stroke-linecap="butt" transform="matrix(1.420744, 0, 0, 1.420744, 181.988225, 52.083054)" fill="none" stroke-linejoin="miter" d="M 49.396491 40.943951 L 49.396491 90.772064 C 49.396491 92.432726 49.984872 93.862436 51.161632 95.058442 C 52.360388 96.237952 53.790097 96.826333 55.45076 96.826333 C 57.111422 96.826333 58.530133 96.237952 59.709643 95.058442 C 60.886404 93.862436 61.474784 92.432726 61.474784 90.772064 C 61.474784 89.111402 60.886404 87.670695 59.709643 86.455442 C 58.530133 85.218194 57.111422 84.602319 55.45076 84.602319 L 51.046156 84.602319 L 51.046156 55.428004 L 55.45076 55.428004 C 60.355762 55.428004 64.922583 56.354566 69.153972 58.210438 C 73.382612 60.063561 77.119102 62.650785 80.363442 65.974859 C 83.607782 69.296183 86.140017 73.090411 87.954647 77.357543 C 89.769278 81.627424 90.676594 86.213492 90.676594 91.118494 C 90.676594 95.946512 89.769278 100.505084 87.954647 104.794212 C 86.140017 109.061344 83.607782 112.81708 80.363442 116.06142 C 77.119102 119.30576 73.382612 121.837995 69.153972 123.652625 C 64.922583 125.467256 60.355762 126.374572 55.45076 126.374572 C 50.622742 126.374572 46.064169 125.467256 41.777791 123.652625 C 37.50791 121.837995 33.752174 119.30576 30.507834 116.06142 C 27.263494 112.81708 24.734008 109.061344 22.916628 104.794212 C 21.101997 100.505084 20.194682 95.946512 20.194682 91.118494 L 20.194682 40.943951 Z M 49.396491 40.943951 " stroke="#fff9f9" stroke-width="8.900025" stroke-opacity="1" stroke-miterlimit="4"/><g fill="#171616" fill-opacity="1"><g transform="translate(208.826957, 228.255249)"><g><path d="M 43.328125 -118 L 43.328125 -47.203125 C 43.328125 -44.835938 44.164062 -42.8125 45.84375 -41.125 C 47.53125 -39.445312 49.554688 -38.609375 51.921875 -38.609375 C 54.285156 -38.609375 56.304688 -39.445312 57.984375 -41.125 C 59.671875 -42.8125 60.515625 -44.835938 60.515625 -47.203125 C 60.515625 -49.554688 59.671875 -51.601562 57.984375 -53.34375 C 56.304688 -55.09375 54.285156 -55.96875 51.921875 -55.96875 L 45.6875 -55.96875 L 45.6875 -97.4375 L 51.921875 -97.4375 C 58.890625 -97.4375 65.378906 -96.113281 71.390625 -93.46875 C 77.398438 -90.832031 82.707031 -87.15625 87.3125 -82.4375 C 91.925781 -77.71875 95.523438 -72.320312 98.109375 -66.25 C 100.691406 -60.175781 101.984375 -53.660156 101.984375 -46.703125 C 101.984375 -39.835938 100.691406 -33.367188 98.109375 -27.296875 C 95.523438 -21.234375 91.925781 -15.898438 87.3125 -11.296875 C 82.707031 -6.691406 77.398438 -3.09375 71.390625 -0.5 C 65.378906 2.082031 58.890625 3.375 51.921875 3.375 C 45.066406 3.375 38.601562 2.082031 32.53125 -0.5 C 26.46875 -3.09375 21.128906 -6.691406 16.515625 -11.296875 C 11.910156 -15.898438 8.316406 -21.234375 5.734375 -27.296875 C 3.148438 -33.367188 1.859375 -39.835938 1.859375 -46.703125 L 1.859375 -118 Z M 43.328125 -118 "/></g></g></g><g fill="#171616" fill-opacity="1"><g transform="translate(213.687169, 105.934266)"><g><path d="M 10.421875 -4.21875 C 9.410156 -3.757812 8.328125 -3.421875 7.171875 -3.203125 C 6.023438 -2.992188 4.882812 -2.96875 3.75 -3.125 C 2.613281 -3.28125 1.535156 -3.679688 0.515625 -4.328125 C -0.492188 -4.984375 -1.367188 -5.972656 -2.109375 -7.296875 L 2.015625 -9.140625 C 2.691406 -8.253906 3.421875 -7.648438 4.203125 -7.328125 C 4.992188 -7.003906 5.789062 -6.890625 6.59375 -6.984375 C 7.40625 -7.078125 8.179688 -7.289062 8.921875 -7.625 C 10.003906 -8.113281 10.8125 -8.753906 11.34375 -9.546875 C 11.882812 -10.347656 11.925781 -11.253906 11.46875 -12.265625 C 11.132812 -13.015625 10.632812 -13.476562 9.96875 -13.65625 C 9.3125 -13.84375 8.546875 -13.878906 7.671875 -13.765625 C 6.804688 -13.648438 5.878906 -13.484375 4.890625 -13.265625 C 3.929688 -13.078125 2.96875 -12.90625 2 -12.75 C 1.03125 -12.601562 0.0859375 -12.578125 -0.828125 -12.671875 C -1.753906 -12.773438 -2.59375 -13.082031 -3.34375 -13.59375 C -4.09375 -14.113281 -4.71875 -14.925781 -5.21875 -16.03125 C -5.832031 -17.394531 -6.015625 -18.675781 -5.765625 -19.875 C -5.523438 -21.082031 -4.945312 -22.171875 -4.03125 -23.140625 C -3.113281 -24.117188 -1.945312 -24.929688 -0.53125 -25.578125 C 0.820312 -26.179688 2.203125 -26.515625 3.609375 -26.578125 C 5.023438 -26.640625 6.367188 -26.363281 7.640625 -25.75 C 8.910156 -25.144531 10 -24.132812 10.90625 -22.71875 L 6.859375 -20.890625 C 6.085938 -21.898438 5.171875 -22.476562 4.109375 -22.625 C 3.054688 -22.78125 1.988281 -22.613281 0.90625 -22.125 C -0.09375 -21.675781 -0.816406 -21.101562 -1.265625 -20.40625 C -1.722656 -19.707031 -1.773438 -18.957031 -1.421875 -18.15625 C -1.128906 -17.507812 -0.671875 -17.097656 -0.046875 -16.921875 C 0.566406 -16.753906 1.285156 -16.726562 2.109375 -16.84375 C 2.941406 -16.96875 3.828125 -17.117188 4.765625 -17.296875 C 5.734375 -17.515625 6.722656 -17.691406 7.734375 -17.828125 C 8.753906 -17.960938 9.75 -17.972656 10.71875 -17.859375 C 11.6875 -17.753906 12.566406 -17.425781 13.359375 -16.875 C 14.160156 -16.332031 14.832031 -15.460938 15.375 -14.265625 C 16.269531 -12.273438 16.289062 -10.378906 15.4375 -8.578125 C 14.582031 -6.785156 12.910156 -5.332031 10.421875 -4.21875 Z M 10.421875 -4.21875 "/></g></g></g><g fill="#171616" fill-opacity="1"><g transform="translate(236.964792, 96.443722)"><g><path d="M 11.6875 -0.796875 L 7.34375 -0.5 L 6.046875 -19.65625 L -1 -19.171875 L -1.265625 -23.078125 L 17.140625 -24.328125 L 17.40625 -20.421875 L 10.390625 -19.953125 Z M 11.6875 -0.796875 "/></g></g></g><g fill="#171616" fill-opacity="1"><g transform="translate(260.086142, 95.321375)"><g><path d="M 10.546875 3.65625 C 8.429688 3.007812 6.820312 2.132812 5.71875 1.03125 C 4.625 -0.0703125 3.96875 -1.351562 3.75 -2.8125 C 3.53125 -4.269531 3.671875 -5.832031 4.171875 -7.5 L 8.453125 -21.578125 L 12.65625 -20.3125 L 8.375 -6.234375 C 8.101562 -5.328125 8.003906 -4.46875 8.078125 -3.65625 C 8.148438 -2.84375 8.472656 -2.132812 9.046875 -1.53125 C 9.617188 -0.925781 10.5 -0.441406 11.6875 -0.078125 C 12.882812 0.285156 13.882812 0.367188 14.6875 0.171875 C 15.488281 -0.015625 16.144531 -0.421875 16.65625 -1.046875 C 17.164062 -1.671875 17.554688 -2.4375 17.828125 -3.34375 L 22.109375 -17.421875 L 26.3125 -16.15625 L 22.03125 -2.078125 C 21.53125 -0.410156 20.78125 0.96875 19.78125 2.0625 C 18.789062 3.15625 17.53125 3.851562 16 4.15625 C 14.46875 4.457031 12.648438 4.289062 10.546875 3.65625 Z M 10.546875 3.65625 "/></g></g></g><g fill="#171616" fill-opacity="1"><g transform="translate(284.924466, 103.678784)"><g><path d="M 6.84375 5.5 L 1.609375 1.296875 L 16.09375 -16.703125 L 21.328125 -12.5 C 24.378906 -10.039062 26.085938 -7.382812 26.453125 -4.53125 C 26.816406 -1.6875 25.832031 1.179688 23.5 4.078125 C 21.1875 6.960938 18.59375 8.53125 15.71875 8.78125 C 12.84375 9.039062 9.882812 7.945312 6.84375 5.5 Z M 17.03125 -10.9375 L 7.453125 0.984375 L 9.25 2.421875 C 10.445312 3.390625 11.648438 4.054688 12.859375 4.421875 C 14.066406 4.785156 15.28125 4.738281 16.5 4.28125 C 17.71875 3.820312 18.921875 2.847656 20.109375 1.359375 C 21.234375 -0.0351562 21.894531 -1.375 22.09375 -2.65625 C 22.289062 -3.9375 22.101562 -5.148438 21.53125 -6.296875 C 20.957031 -7.441406 20.0625 -8.503906 18.84375 -9.484375 Z M 17.03125 -10.9375 "/></g></g></g><g fill="#171616" fill-opacity="1"><g transform="translate(304.505183, 121.535667)"><g><path d="M 3.640625 5.296875 L 1.171875 1.703125 L 20.21875 -11.375 L 22.6875 -7.78125 Z M 3.640625 5.296875 "/></g></g></g><g fill="#171616" fill-opacity="1"><g transform="translate(312.366105, 131.994989)"><g><path d="M 3.15625 12 C 2.601562 10.175781 2.429688 8.492188 2.640625 6.953125 C 2.859375 5.410156 3.367188 4.039062 4.171875 2.84375 C 4.972656 1.644531 6 0.625 7.25 -0.21875 C 8.507812 -1.070312 9.90625 -1.726562 11.4375 -2.1875 C 12.957031 -2.644531 14.472656 -2.863281 15.984375 -2.84375 C 17.503906 -2.820312 18.925781 -2.53125 20.25 -1.96875 C 21.570312 -1.40625 22.738281 -0.539062 23.75 0.625 C 24.769531 1.789062 25.554688 3.285156 26.109375 5.109375 C 26.660156 6.941406 26.832031 8.628906 26.625 10.171875 C 26.425781 11.710938 25.925781 13.082031 25.125 14.28125 C 24.320312 15.476562 23.289062 16.5 22.03125 17.34375 C 20.78125 18.1875 19.394531 18.835938 17.875 19.296875 C 16.34375 19.753906 14.816406 19.972656 13.296875 19.953125 C 11.785156 19.941406 10.367188 19.65625 9.046875 19.09375 C 7.722656 18.53125 6.546875 17.664062 5.515625 16.5 C 4.492188 15.332031 3.707031 13.832031 3.15625 12 Z M 6.90625 10.875 C 7.3125 12.25 7.976562 13.3125 8.90625 14.0625 C 9.84375 14.820312 10.972656 15.273438 12.296875 15.421875 C 13.617188 15.566406 15.046875 15.410156 16.578125 14.953125 C 18.097656 14.492188 19.359375 13.84375 20.359375 13 C 21.367188 12.15625 22.050781 11.160156 22.40625 10.015625 C 22.769531 8.878906 22.75 7.625 22.34375 6.25 C 21.9375 4.90625 21.265625 3.847656 20.328125 3.078125 C 19.398438 2.316406 18.28125 1.859375 16.96875 1.703125 C 15.664062 1.546875 14.253906 1.695312 12.734375 2.15625 C 11.203125 2.613281 9.925781 3.269531 8.90625 4.125 C 7.882812 4.976562 7.191406 5.976562 6.828125 7.125 C 6.472656 8.28125 6.5 9.53125 6.90625 10.875 Z M 6.90625 10.875 "/></g></g></g></svg>